<svg width="24" height="24" viewBox="0 0 24 24" fill="none" xmlns="http://www.w3.org/2000/svg">
<path d="M8.625 6.375V4.8675C8.39094 4.84801 8.16477 4.77369 7.96476 4.65056C7.76476 4.52743 7.59655 4.35895 7.47375 4.15875C7.29811 4.38165 7.07428 4.56189 6.81904 4.68593C6.5638 4.80998 6.28379 4.87462 6 4.875H4.125V6.375C4.125 6.97174 4.36205 7.54403 4.78401 7.96599C5.20597 8.38795 5.77826 8.625 6.375 8.625C6.97174 8.625 7.54403 8.38795 7.96599 7.96599C8.38795 7.54403 8.625 6.97174 8.625 6.375ZM4.875 5.25H5.625V6H4.875V5.25ZM6.375 7.875C6.07663 7.875 5.79048 7.75647 5.5795 7.5455C5.36853 7.33452 5.25 7.04837 5.25 6.75H6C6 6.84946 6.03951 6.94484 6.10983 7.01517C6.18016 7.08549 6.27554 7.125 6.375 7.125C6.47446 7.125 6.56984 7.08549 6.64017 7.01517C6.71049 6.94484 6.75 6.84946 6.75 6.75H7.5C7.5 7.04837 7.38147 7.33452 7.1705 7.5455C6.95952 7.75647 6.67337 7.875 6.375 7.875ZM7.875 6H7.125V5.25H7.875V6ZM4.5 16.875L5.25375 16.44L5.61375 12.4725L5.34 12.0637L5.14125 12.2662C5.07032 12.3362 4.97462 12.3753 4.875 12.375C4.86238 12.3756 4.84975 12.3744 4.8375 12.3713C4.78198 12.3658 4.72834 12.3481 4.68039 12.3196C4.63244 12.2911 4.59134 12.2524 4.56 12.2062L3.80625 11.0475L3.22875 11.2575C2.72302 11.4429 2.28623 11.7788 1.97716 12.22C1.66808 12.6611 1.50156 13.1864 1.5 13.725V16.875H3V13.125H3.75V16.875H4.5ZM7.125 9.2775C6.63345 9.40751 6.11655 9.40751 5.625 9.2775V9.8925L6.09 10.125H6.66L7.125 9.8925V9.2775ZM3 6C3 6.09946 3.03951 6.19484 3.10984 6.26517C3.18016 6.33549 3.27554 6.375 3.375 6.375V5.625C3.27554 5.625 3.18016 5.66451 3.10984 5.73484C3.03951 5.80516 3 5.90054 3 6ZM4.125 4.125H6C6.29809 4.12411 6.58373 4.0053 6.79451 3.79451C7.0053 3.58373 7.12411 3.29809 7.125 3C7.12528 2.9086 7.15894 2.82044 7.21964 2.75211C7.28034 2.68377 7.36392 2.63996 7.45465 2.62891C7.54538 2.61786 7.63703 2.64032 7.71236 2.69208C7.7877 2.74384 7.84153 2.82134 7.86375 2.91L8.025 3.555C8.06025 3.69619 8.13569 3.82413 8.24219 3.9233C8.34868 4.02247 8.48166 4.08863 8.625 4.11375V3.75C8.625 3.15326 8.38795 2.58097 7.96599 2.15901C7.54403 1.73705 6.97174 1.5 6.375 1.5C5.77826 1.5 5.20597 1.73705 4.78401 2.15901C4.36205 2.58097 4.125 3.15326 4.125 3.75V4.125ZM9.375 5.625V6.375C9.47446 6.375 9.56984 6.33549 9.64017 6.26517C9.71049 6.19484 9.75 6.09946 9.75 6C9.75 5.90054 9.71049 5.80516 9.64017 5.73484C9.56984 5.66451 9.47446 5.625 9.375 5.625Z" fill="white"/>
<path d="M6.37504 11.0288L5.88379 11.5238L6.20254 12H6.54754L6.86629 11.5238L6.37504 11.0288Z" fill="white"/>
<path d="M21.75 15.375H22.5V13.725C22.4984 13.1864 22.3319 12.6611 22.0228 12.22C21.7138 11.7788 21.277 11.4429 20.7712 11.2575L19.9875 10.9725L18 13.6238V14.5088L19.5 15.375H21C21 14.7788 20.7188 14.4975 20.3588 14.1413C20.2897 14.0697 20.2507 13.9744 20.25 13.875V13.125H21V13.7213C21.2355 13.9276 21.4243 14.1819 21.5536 14.4671C21.6829 14.7523 21.7499 15.0618 21.75 15.375Z" fill="white"/>
<path d="M5.22777 10.5337L4.53027 10.785L4.93527 11.4075L5.61777 10.7287L5.22777 10.5337Z" fill="white"/>
<path d="M14.5345 12.8888C14.6774 12.8501 14.8265 12.8401 14.9733 12.8594C15.12 12.8787 15.2615 12.9269 15.3895 13.0013L17.2495 14.0775V13.6238L15.262 10.9725L14.4782 11.2575C13.9725 11.4429 13.5357 11.7788 13.2266 12.22C12.9176 12.6611 12.7511 13.1864 12.7495 13.725V15H14.3507L14.2645 14.9513C14.0713 14.8403 13.9154 14.6745 13.8165 14.4748C13.7177 14.2751 13.6803 14.0506 13.7092 13.8296C13.7382 13.6087 13.832 13.4014 13.979 13.2339C14.1259 13.0663 14.3192 12.9462 14.5345 12.8888ZM11.2495 15V13.725C11.2479 13.1864 11.0814 12.6611 10.7723 12.22C10.4633 11.7788 10.0265 11.4429 9.52074 11.2575L8.94324 11.0475L8.18949 12.2063C8.15816 12.2524 8.11706 12.2911 8.0691 12.3196C8.02115 12.3481 7.96751 12.3658 7.91199 12.3713C7.89975 12.3744 7.88711 12.3756 7.87449 12.375C7.77487 12.3753 7.67917 12.3362 7.60824 12.2663L7.40949 12.0638L7.13574 12.4725L7.38324 15.21L8.60949 14.5013C8.73029 14.4331 8.86242 14.3874 8.99949 14.3663V13.125H9.74949V14.5163C9.91441 14.6118 10.0515 14.7488 10.147 14.9138C10.2574 15.1019 10.3096 15.3185 10.297 15.5363C10.3962 15.3725 10.5361 15.2371 10.7029 15.1432C10.8698 15.0493 11.058 14.9999 11.2495 15ZM9.73449 16.4513L9.64824 16.5H10.1957C10.1509 16.38 10.1268 16.2531 10.1245 16.125C10.1251 16.1023 10.1276 16.0798 10.132 16.0575C10.0342 16.2197 9.89758 16.355 9.73449 16.4513Z" fill="white"/>
<path d="M6.34133 12.75L6.04883 15.9825L6.67133 15.6225L6.40883 12.75H6.34133Z" fill="white"/>
<path d="M15.1575 4.02C15.3446 4.09927 15.5471 4.13517 15.75 4.125C16.221 4.11003 16.6831 3.99228 17.1038 3.78C17.616 3.52548 18.1782 3.38719 18.75 3.375C19.2408 3.34876 19.7232 3.50957 20.1 3.825C20.1488 3.85875 20.1938 3.8925 20.2388 3.92625C20.1893 3.26116 19.8881 2.63996 19.3965 2.1892C18.905 1.73844 18.2601 1.49202 17.5932 1.50015C16.9263 1.50828 16.2876 1.77033 15.8072 2.23294C15.3268 2.69555 15.0408 3.3239 15.0075 3.99C15.0591 3.98906 15.1103 3.99929 15.1575 4.02ZM16.125 8.97C15.8972 8.84129 15.6878 8.68235 15.5025 8.4975C15.2232 8.21932 15.0018 7.88849 14.8512 7.52416C14.7005 7.15983 14.6237 6.76924 14.625 6.375V6C14.4263 6.0006 14.2359 6.0798 14.0954 6.22033C13.9548 6.36085 13.8756 6.55127 13.875 6.75C13.8768 6.90044 13.921 7.04733 14.0025 7.17375C14.0305 7.21576 14.0493 7.26318 14.0577 7.31294C14.0661 7.36269 14.0639 7.41365 14.0513 7.4625C14.0401 7.51252 14.0187 7.55968 13.9883 7.60099C13.958 7.6423 13.9194 7.67687 13.875 7.7025C13.6039 7.85836 13.3884 8.09533 13.259 8.38005C13.1296 8.66477 13.0927 8.9829 13.1536 9.28968C13.2144 9.59646 13.37 9.87642 13.5983 10.0902C13.8266 10.3039 14.1162 10.4407 14.4263 10.4813L16.125 9.8625V8.97ZM22.125 9C22.1242 8.73707 22.0545 8.47895 21.9229 8.25131C21.7914 8.02367 21.6025 7.83446 21.375 7.7025C21.3307 7.67687 21.2921 7.6423 21.2617 7.60099C21.2314 7.55968 21.21 7.51252 21.1988 7.4625C21.1862 7.41365 21.184 7.36269 21.1924 7.31294C21.2008 7.26318 21.2196 7.21576 21.2475 7.17375C21.3291 7.04733 21.3733 6.90044 21.375 6.75C21.3744 6.55127 21.2952 6.36085 21.1547 6.22033C21.0142 6.0798 20.8238 6.0006 20.625 6V6.375C20.6243 6.90105 20.4854 7.41768 20.2221 7.87311C19.9588 8.32855 19.5805 8.70681 19.125 8.97V9.8625L20.8238 10.4813C21.1828 10.4327 21.5122 10.2561 21.7513 9.98389C21.9904 9.71171 22.1232 9.36229 22.125 9Z" fill="white"/>
<path d="M8.22031 10.785L7.52281 10.5337L7.13281 10.7287L7.81531 11.4075L8.22031 10.785Z" fill="white"/>
<path d="M19.2113 16.0762L15.015 13.65C14.9506 13.6122 14.8763 13.5944 14.8018 13.5991C14.7272 13.6037 14.6557 13.6305 14.5965 13.676C14.5373 13.7216 14.493 13.7837 14.4694 13.8546C14.4457 13.9255 14.4437 14.0018 14.4637 14.0737C14.4764 14.1212 14.4986 14.1656 14.5289 14.2043C14.5592 14.2429 14.597 14.2751 14.64 14.2987L15.9375 15.0487C15.9947 15.0818 16.0422 15.1294 16.0751 15.1866C16.1081 15.2439 16.1253 15.3089 16.125 15.375C16.1259 15.6731 16.2447 15.9587 16.4555 16.1695C16.6663 16.3803 16.9519 16.4991 17.25 16.5H17.625V17.25H17.25C16.819 17.2484 16.4018 17.0983 16.0685 16.8251C15.7352 16.5519 15.5062 16.1722 15.42 15.75H11.25C11.1505 15.75 11.0552 15.7895 10.9848 15.8598C10.9145 15.9302 10.875 16.0255 10.875 16.125C10.875 16.2245 10.9145 16.3198 10.9848 16.3902C11.0552 16.4605 11.1505 16.5 11.25 16.5H14.625C14.7245 16.5 14.8198 16.5395 14.8902 16.6098C14.9605 16.6802 15 16.7755 15 16.875C15 16.9745 14.9605 17.0698 14.8902 17.1402C14.8198 17.2105 14.7245 17.25 14.625 17.25H13.8075C13.8962 17.4919 13.8975 17.7572 13.8113 18H14.25C14.5484 18 14.8345 18.1185 15.0455 18.3295C15.2565 18.5405 15.375 18.8266 15.375 19.125C15.375 19.4234 15.2565 19.7095 15.0455 19.9205C14.8345 20.1315 14.5484 20.25 14.25 20.25H13.8113C13.8975 20.4928 13.8962 20.7581 13.8075 21H17.91L19.3312 20.2912C19.3835 20.2645 19.4413 20.2503 19.5 20.25H22.5V16.125H19.3988C19.3333 16.1239 19.269 16.1072 19.2113 16.0762ZM18.6788 11.4675C17.9919 11.6775 17.2581 11.6775 16.5712 11.4675L17.625 12.8737L18.6788 11.4675Z" fill="white"/>
<path d="M4.66875 21.7912L6.09 22.5H11.25C11.3495 22.5 11.4448 22.4605 11.5152 22.3902C11.5855 22.3198 11.625 22.2245 11.625 22.125C11.625 22.0255 11.5855 21.9302 11.5152 21.8598C11.4448 21.7895 11.3495 21.75 11.25 21.75H9.375C9.27554 21.75 9.18016 21.7105 9.10983 21.6402C9.03951 21.5698 9 21.4745 9 21.375C9 21.2755 9.03951 21.1802 9.10983 21.1098C9.18016 21.0395 9.27554 21 9.375 21H12.75C12.8495 21 12.9448 20.9605 13.0152 20.8902C13.0855 20.8198 13.125 20.7245 13.125 20.625C13.125 20.5255 13.0855 20.4302 13.0152 20.3598C12.9448 20.2895 12.8495 20.25 12.75 20.25H9.375C9.27554 20.25 9.18016 20.2105 9.10983 20.1402C9.03951 20.0698 9 19.9745 9 19.875C9 19.7755 9.03951 19.6802 9.10983 19.6098C9.18016 19.5395 9.27554 19.5 9.375 19.5H14.25C14.3495 19.5 14.4448 19.4605 14.5152 19.3902C14.5855 19.3198 14.625 19.2245 14.625 19.125C14.625 19.0255 14.5855 18.9302 14.5152 18.8598C14.4448 18.7895 14.3495 18.75 14.25 18.75H9.375C9.27554 18.75 9.18016 18.7105 9.10983 18.6402C9.03951 18.5698 9 18.4745 9 18.375C9 18.2755 9.03951 18.1802 9.10983 18.1098C9.18016 18.0395 9.27554 18 9.375 18H12.75C12.8495 18 12.9448 17.9605 13.0152 17.8902C13.0855 17.8198 13.125 17.7245 13.125 17.625C13.125 17.5255 13.0855 17.4302 13.0152 17.3598C12.9448 17.2895 12.8495 17.25 12.75 17.25H8.25C8.16725 17.2504 8.0867 17.2233 8.0209 17.1731C7.95511 17.123 7.90777 17.0524 7.88625 16.9725C7.86596 16.8923 7.87217 16.8077 7.90393 16.7313C7.9357 16.6549 7.99133 16.5909 8.0625 16.5487L9.36 15.7987C9.40303 15.7751 9.44083 15.7429 9.47112 15.7043C9.50141 15.6656 9.52357 15.6212 9.53625 15.5737C9.56193 15.4773 9.54832 15.3746 9.49842 15.2881C9.44851 15.2017 9.36638 15.1385 9.27 15.1125C9.17374 15.0874 9.0715 15.1009 8.985 15.15L4.78875 17.5762C4.73104 17.6072 4.66675 17.624 4.60125 17.625H1.5V21.75H4.5C4.5587 21.7504 4.6165 21.7645 4.66875 21.7912ZM19.875 6.375V4.5825C19.7925 4.53 19.7175 4.47375 19.65 4.425C19.5278 4.31713 19.3851 4.23498 19.2305 4.18344C19.0759 4.13189 18.9125 4.11202 18.75 4.125C18.279 4.13997 17.817 4.25772 17.3962 4.47C16.884 4.72452 16.3219 4.86281 15.75 4.875C15.6246 4.87555 15.4994 4.86803 15.375 4.8525V6.375C15.3759 6.97146 15.6132 7.54324 16.035 7.965C16.4568 8.38677 17.0285 8.6241 17.625 8.625C18.2217 8.625 18.794 8.38795 19.216 7.96599C19.6379 7.54403 19.875 6.97174 19.875 6.375ZM16.125 5.25H16.875V6H16.125V5.25ZM17.625 7.875C17.3266 7.875 17.0405 7.75647 16.8295 7.54549C16.6185 7.33451 16.5 7.04837 16.5 6.75H17.25C17.25 6.84945 17.2895 6.94484 17.3598 7.01516C17.4302 7.08549 17.5255 7.125 17.625 7.125C17.7245 7.125 17.8198 7.08549 17.8902 7.01516C17.9605 6.94484 18 6.84945 18 6.75H18.75C18.75 7.04837 18.6315 7.33451 18.4205 7.54549C18.2095 7.75647 17.9234 7.875 17.625 7.875ZM19.125 6H18.375V5.25H19.125V6ZM17.625 9.375C17.3719 9.37467 17.1198 9.34191 16.875 9.2775V10.125C16.8754 10.2022 16.8518 10.2776 16.8075 10.3407C16.7631 10.4039 16.7002 10.4517 16.6275 10.4775L16.365 10.5712C16.755 10.7709 17.1869 10.875 17.625 10.875C18.0631 10.875 18.495 10.7709 18.885 10.5712L18.6225 10.4775C18.5498 10.4517 18.4869 10.4039 18.4425 10.3407C18.3982 10.2776 18.3746 10.2022 18.375 10.125V9.2775C18.1299 9.34058 17.878 9.37332 17.625 9.375Z" fill="white"/>
</svg>
