<svg width="34" height="34" viewBox="0 0 34 34" fill="none" xmlns="http://www.w3.org/2000/svg">
<path d="M28.3798 28.3261H5.62109C4.42391 28.3247 3.27616 27.8485 2.42962 27.0019C1.58308 26.1554 1.10687 25.0076 1.10547 23.8105V10.1892C1.10687 8.99202 1.58308 7.84427 2.42962 6.99773C3.27616 6.15119 4.42391 5.67499 5.62109 5.67358H28.3798C29.577 5.67499 30.7248 6.15119 31.5713 6.99773C32.4179 7.84427 32.8941 8.99202 32.8955 10.1892V23.8105C32.8941 25.0076 32.4179 26.1554 31.5713 27.0019C30.7248 27.8485 29.577 28.3247 28.3798 28.3261ZM5.62109 7.26733C4.84616 7.26733 4.10297 7.57517 3.55502 8.12313C3.00706 8.67109 2.69922 9.41428 2.69922 10.1892V23.8105C2.69922 24.5854 3.00706 25.3286 3.55502 25.8765C4.10297 26.4245 4.84616 26.7323 5.62109 26.7323H28.3798C29.1548 26.7323 29.898 26.4245 30.4459 25.8765C30.9939 25.3286 31.3017 24.5854 31.3017 23.8105V10.1892C31.3017 9.41428 30.9939 8.67109 30.4459 8.12313C29.898 7.57517 29.1548 7.26733 28.3798 7.26733H5.62109Z" fill="#191919" fill-opacity="0.7"/>
<path d="M17.0003 20.2299C16.0173 20.2315 15.0605 19.9125 14.275 19.3215L1.87035 9.93962C1.7827 9.87811 1.70835 9.79956 1.65174 9.70868C1.59513 9.61779 1.55741 9.51643 1.54084 9.41064C1.52428 9.30485 1.5292 9.19681 1.55532 9.09297C1.58144 8.98913 1.62822 8.89162 1.69286 8.80626C1.75751 8.7209 1.83869 8.64944 1.93157 8.59616C2.02445 8.54287 2.12711 8.50885 2.23343 8.49613C2.33974 8.4834 2.44754 8.49223 2.55036 8.5221C2.65319 8.55196 2.74895 8.60224 2.83191 8.66993L15.2366 18.0624C15.746 18.4427 16.3647 18.6481 17.0003 18.6481C17.636 18.6481 18.2547 18.4427 18.7641 18.0624L31.1688 8.66993C31.2517 8.60224 31.3475 8.55196 31.4503 8.5221C31.5532 8.49223 31.6609 8.4834 31.7673 8.49613C31.8736 8.50885 31.9762 8.54287 32.0691 8.59616C32.162 8.64944 32.2432 8.7209 32.3078 8.80626C32.3725 8.89162 32.4193 8.98913 32.4454 9.09297C32.4715 9.19681 32.4764 9.30485 32.4598 9.41064C32.4433 9.51643 32.4056 9.61779 32.349 9.70868C32.2923 9.79956 32.218 9.87811 32.1303 9.93962L19.7257 19.3215C18.9401 19.9125 17.9834 20.2315 17.0003 20.2299Z" fill="#191919" fill-opacity="0.7"/>
<path d="M2.21504 26.1056C2.05342 26.1058 1.89555 26.0569 1.76237 25.9653C1.62919 25.8737 1.52701 25.7438 1.46938 25.5928C1.41175 25.4418 1.40139 25.2769 1.43968 25.1199C1.47798 24.9629 1.56311 24.8212 1.68379 24.7137L11.4588 15.9959C11.6166 15.855 11.8239 15.7825 12.0351 15.7945C12.2463 15.8064 12.4441 15.9018 12.585 16.0596C12.7259 16.2174 12.7984 16.4247 12.7864 16.6359C12.7745 16.8472 12.6791 17.045 12.5213 17.1859L2.74629 25.9037C2.60112 26.0358 2.41128 26.1079 2.21504 26.1056ZM31.7844 26.1056C31.5882 26.1079 31.3983 26.0358 31.2532 25.9037L21.4782 17.1859C21.3204 17.045 21.225 16.8472 21.213 16.6359C21.2011 16.4247 21.2735 16.2174 21.4144 16.0596C21.5553 15.9018 21.7531 15.8064 21.9643 15.7945C22.1755 15.7825 22.3829 15.855 22.5407 15.9959L32.3104 24.7137C32.431 24.8212 32.5162 24.9629 32.5545 25.1199C32.5927 25.2769 32.5824 25.4418 32.5248 25.5928C32.4671 25.7438 32.3649 25.8737 32.2318 25.9653C32.0986 26.0569 31.9407 26.1058 31.7791 26.1056H31.7844Z" fill="#191919" fill-opacity="0.7"/>
</svg>
