<svg width="32" height="32" viewBox="0 0 32 32" fill="none" xmlns="http://www.w3.org/2000/svg">
<path fill-rule="evenodd" clip-rule="evenodd" d="M0 1.72973C0 0.774427 0.774426 0 1.72973 0H14.2704C15.2257 0 16.0002 0.774426 16.0002 1.72973V9.51355H13.3663C12.411 9.51355 11.6365 10.288 11.6365 11.2433V18.1622C11.6365 19.1175 12.411 19.8919 13.3663 19.8919H16.0002V22.4865C16.0002 23.4418 15.2257 24.2162 14.2704 24.2162H1.72973C0.774426 24.2162 0 23.4418 0 22.4865V1.72973ZM16.0004 19.8919H16.0002V9.51355H16.0004V19.8919ZM16.0004 19.8919H19.3614C20.3168 19.8919 21.0912 19.1175 21.0912 18.1622V11.2433C21.0912 10.288 20.3168 9.51355 19.3615 9.51355H16.0004C16.0004 8.55825 16.7749 7.78381 17.7302 7.78381H30.2709C31.2262 7.78381 32.0006 8.55824 32.0006 9.51355V30.2703C32.0006 31.2256 31.2262 32 30.2709 32H17.7302C16.7749 32 16.0004 31.2256 16.0004 30.2703V19.8919Z" fill="#023E87"/>
</svg>
