<svg width="24" height="24" viewBox="0 0 24 24" fill="none" xmlns="http://www.w3.org/2000/svg">
<path fill-rule="evenodd" clip-rule="evenodd" d="M8 4.5C8 3.11929 9.11929 2 10.5 2H13.5C14.8807 2 16 3.11929 16 4.5V6H14V4.5C14 4.22386 13.7761 4 13.5 4H10.5C10.2239 4 10 4.22386 10 4.5V6H8V4.5Z" fill="#373737"/>
<path d="M3 9C2.44772 9 2 9.44772 2 10V21C2 21.5523 2.44772 22 3 22H21C21.5523 22 22 21.5523 22 21V10C22 9.44772 21.5523 9 21 9H3Z" fill="#373737" fill-opacity="0.87"/>
<path d="M2 5C1.44772 5 1 5.44772 1 6V13C1 13.5043 1.37554 13.9297 1.87597 13.9923L9.87597 14.9923C9.91711 14.9974 9.95854 15 10 15H14C14.0415 15 14.0829 14.9974 14.124 14.9923L22.124 13.9923C22.6245 13.9297 23 13.5043 23 13V6C23 5.44772 22.5523 5 22 5H2Z" fill="#373737"/>
<path d="M10 10.5C9.44772 10.5 9 10.9477 9 11.5V16.5C9 17.0523 9.44772 17.5 10 17.5H14C14.5523 17.5 15 17.0523 15 16.5V11.5C15 10.9477 14.5523 10.5 14 10.5H10Z" fill="#373737" fill-opacity="0.7"/>
</svg>
