<svg width="24" height="24" viewBox="0 0 24 24" fill="none" xmlns="http://www.w3.org/2000/svg">
<g clip-path="url(#clip0_105_1342)">
<path d="M23.25 0H15.75C15.5511 0 15.3603 0.0790176 15.2197 0.21967C15.079 0.360322 15 0.551088 15 0.75V23.25C15 23.4489 15.079 23.6397 15.2197 23.7803C15.3603 23.921 15.5511 24 15.75 24H23.25C23.4489 24 23.6397 23.921 23.7803 23.7803C23.921 23.6397 24 23.4489 24 23.25V0.75C24 0.551088 23.921 0.360322 23.7803 0.21967C23.6397 0.0790176 23.4489 0 23.25 0ZM7.5 8.25V23.25C7.5 23.4489 7.57902 23.6397 7.71967 23.7803C7.86032 23.921 8.05109 24 8.25 24H13.5V7.5H8.25C8.05109 7.5 7.86032 7.57902 7.71967 7.71967C7.57902 7.86032 7.5 8.05109 7.5 8.25ZM0 15.75V23.25C0 23.4489 0.0790176 23.6397 0.21967 23.7803C0.360322 23.921 0.551088 24 0.75 24H6V15H0.75C0.551088 15 0.360322 15.079 0.21967 15.2197C0.0790176 15.3603 0 15.5511 0 15.75Z" fill="#373737"/>
</g>
<defs>
<clipPath id="clip0_105_1342">
<rect width="24" height="24" fill="white"/>
</clipPath>
</defs>
</svg>
