<svg width="92" height="24" viewBox="0 0 92 24" fill="none" xmlns="http://www.w3.org/2000/svg">
<path d="M0 0H9.85938V1.17188H8.04688C7.41146 1.17188 6.99479 1.28646 6.79688 1.51562C6.60938 1.73438 6.51562 2.27604 6.51562 3.14062V10.2656H17.0938V3.14062C17.0938 2.24479 17 1.69271 16.8125 1.48438C16.6354 1.27604 16.2083 1.17188 15.5312 1.17188H13.8438V0H23.6562V1.17188H21.8594C21.4115 1.17188 21.0938 1.22917 20.9062 1.34375C20.7292 1.45833 20.5833 1.65625 20.4688 1.9375C20.4062 2.11458 20.375 2.57812 20.375 3.32812V19.9531C20.375 20.7552 20.4427 21.2396 20.5781 21.4062C20.849 21.7604 21.3438 21.9375 22.0625 21.9375H23.6562V23.1094H13.8438V21.9375H15.5312C16.1979 21.9375 16.651 21.7552 16.8906 21.3906C17.026 21.1927 17.0938 20.6719 17.0938 19.8281V11.7969H6.51562V19.9531C6.51562 20.7656 6.57812 21.2552 6.70312 21.4219C6.96354 21.7656 7.41146 21.9375 8.04688 21.9375H9.85938V23.1094H0V21.9375H1.89062C2.22396 21.9375 2.48958 21.8698 2.6875 21.7344C2.88542 21.599 3.03125 21.4062 3.125 21.1562C3.17708 20.9896 3.20312 20.5469 3.20312 19.8281V3.14062C3.20312 2.27604 3.10417 1.73438 2.90625 1.51562C2.71875 1.28646 2.30208 1.17188 1.65625 1.17188H0V0ZM25.9688 0H37.9062C40.2188 0 42.0104 0.526042 43.2812 1.57812C44.5625 2.63021 45.2031 4.01042 45.2031 5.71875C45.2031 6.73958 44.9479 7.65104 44.4375 8.45312C43.9375 9.24479 43.2083 9.88021 42.25 10.3594C41.3021 10.8281 39.8073 11.1667 37.7656 11.375C39.2552 11.7812 40.2812 12.1823 40.8438 12.5781C41.4062 12.9635 41.8542 13.4688 42.1875 14.0938C42.5312 14.7083 42.9219 15.9688 43.3594 17.875C43.6719 19.2396 44.0052 20.1719 44.3594 20.6719C44.6302 21.0573 44.9219 21.25 45.2344 21.25C45.5573 21.25 45.8542 21.0156 46.125 20.5469C46.4062 20.0677 46.5781 19.2292 46.6406 18.0312H47.7031C47.5052 21.5729 46.1979 23.3438 43.7812 23.3438C43.0208 23.3438 42.3594 23.151 41.7969 22.7656C41.2448 22.3802 40.8281 21.8125 40.5469 21.0625C40.3281 20.5 40.0833 19.026 39.8125 16.6406C39.6562 15.2552 39.4062 14.2708 39.0625 13.6875C38.7292 13.1042 38.2031 12.6354 37.4844 12.2812C36.7656 11.9271 35.9062 11.75 34.9062 11.75H33.0156V20.8281C33.0156 21.2135 33.1146 21.4844 33.3125 21.6406C33.5625 21.8385 33.9531 21.9375 34.4844 21.9375H36.7031V23.1094H25.9688V21.9375H28.2344C28.7344 21.9375 29.099 21.8385 29.3281 21.6406C29.5677 21.4427 29.6875 21.1719 29.6875 20.8281V2.35938C29.6875 1.96354 29.5677 1.66667 29.3281 1.46875C29.0885 1.27083 28.724 1.17188 28.2344 1.17188H25.9688V0ZM33.0156 10.625H35.75C37.5833 10.625 39.0156 10.2812 40.0469 9.59375C41.0885 8.89583 41.6094 7.66146 41.6094 5.89062C41.6094 4.67188 41.4115 3.70833 41.0156 3C40.6302 2.29167 40.1198 1.80729 39.4844 1.54688C38.849 1.28646 37.599 1.15625 35.7344 1.15625C34.5052 1.15625 33.7448 1.24479 33.4531 1.42188C33.1615 1.58854 33.0156 1.88021 33.0156 2.29688V10.625ZM50.2344 8.46875L54.4219 8.20312C54.651 9.29688 54.8021 10.3385 54.875 11.3281C55.6667 10.1823 56.4583 9.375 57.25 8.90625C58.0417 8.4375 58.9115 8.20312 59.8594 8.20312C60.8698 8.20312 61.7031 8.46875 62.3594 9C63.0156 9.53125 63.5208 10.3958 63.875 11.5938C64.5729 10.4583 65.349 9.60938 66.2031 9.04688C67.0573 8.48438 67.9896 8.20312 69 8.20312C70.3333 8.20312 71.3333 8.59896 72 9.39062C72.8542 10.4323 73.2812 11.776 73.2812 13.4219V20.6875C73.2812 21.125 73.3906 21.4219 73.6094 21.5781C73.901 21.8177 74.3333 21.9375 74.9062 21.9375H75.6406V23.1094H68.2812V21.9375H69.0156C69.6406 21.9375 70.0781 21.8333 70.3281 21.625C70.5781 21.4167 70.7031 21.1042 70.7031 20.6875V13.4219C70.7031 12.3385 70.4375 11.5 69.9062 10.9062C69.375 10.3125 68.6771 10.0156 67.8125 10.0156C67.1562 10.0156 66.5625 10.1927 66.0312 10.5469C65.5 10.8906 65.0833 11.3854 64.7812 12.0312C64.3333 12.9583 64.1094 13.7448 64.1094 14.3906V20.6875C64.1094 21.1146 64.224 21.4323 64.4531 21.6406C64.6823 21.8385 65.0365 21.9375 65.5156 21.9375H66.5156V23.1094H59.0625V21.9375H59.9062C60.4375 21.9375 60.8333 21.8333 61.0938 21.625C61.3542 21.4167 61.4844 21.151 61.4844 20.8281V14.0781C61.4844 12.651 61.2292 11.6146 60.7188 10.9688C60.2188 10.3229 59.5417 10 58.6875 10C57.5833 10 56.7344 10.375 56.1406 11.125C55.2969 12.1875 54.875 13.4271 54.875 14.8438V20.6875C54.875 21.1354 54.974 21.4427 55.1719 21.6094C55.4531 21.8281 55.8906 21.9375 56.4844 21.9375H57.2344V23.1094H49.8594V21.9375H50.9688C51.3854 21.9375 51.7031 21.8333 51.9219 21.625C52.151 21.4167 52.2656 21.151 52.2656 20.8281V11.2344C52.2656 10.7031 52.1302 10.3073 51.8594 10.0469C51.5885 9.78646 51.0469 9.61979 50.2344 9.54688V8.46875ZM91.5312 15.8906H81.0469C81.099 18.1198 81.5156 19.6927 82.2969 20.6094C83.1927 21.6406 84.3333 22.1562 85.7188 22.1562C87.7604 22.1562 89.401 20.9948 90.6406 18.6719L91.6562 19.1094C90.1354 22.0677 87.9375 23.5469 85.0625 23.5469C83.1042 23.5469 81.4531 22.8385 80.1094 21.4219C78.776 20.0052 78.1094 18.1927 78.1094 15.9844C78.1094 13.6094 78.7656 11.6927 80.0781 10.2344C81.401 8.76562 83.026 8.03125 84.9531 8.03125C86.3698 8.03125 87.5938 8.39583 88.625 9.125C89.6562 9.85417 90.4323 10.901 90.9531 12.2656C91.3177 13.224 91.5104 14.4323 91.5312 15.8906ZM81.0469 14.7812H87.3906C87.7656 14.7812 88.0573 14.6562 88.2656 14.4062C88.474 14.1458 88.5781 13.7083 88.5781 13.0938C88.5781 11.9479 88.2188 10.974 87.5 10.1719C86.7917 9.36979 85.9531 8.96875 84.9844 8.96875C83.901 8.96875 82.9792 9.45312 82.2188 10.4219C81.4688 11.3906 81.0781 12.8438 81.0469 14.7812Z" fill="#023E87"/>
</svg>
