<svg width="24" height="24" viewBox="0 0 24 24" fill="none" xmlns="http://www.w3.org/2000/svg">
<path d="M7.35036 8.83126C7.38786 8.85001 7.42536 8.85001 7.44411 8.86876C7.61286 8.92501 7.80036 8.94376 8.04411 8.94376C8.28786 8.94376 8.49411 8.90626 8.66286 8.85001C8.83161 8.77501 8.96286 8.70001 9.05661 8.58751C9.15036 8.47501 9.22536 8.34376 9.26286 8.19376C9.30036 8.04376 9.31911 7.87501 9.31911 7.70626V5.75626C9.31911 5.64376 9.28161 5.55001 9.20661 5.47501C9.13161 5.40001 9.03786 5.36251 8.92536 5.36251C8.70036 5.36251 8.53161 5.53126 8.53161 5.75626V7.65001C8.53161 7.87501 8.49411 8.02501 8.40036 8.11876C8.32536 8.21251 8.17536 8.26876 7.98786 8.26876C7.85661 8.26876 7.72536 8.25001 7.63161 8.19376H7.61286C7.57536 8.17501 7.51911 8.17501 7.48161 8.17501C7.35036 8.17501 7.21911 8.25001 7.16286 8.38126C7.08786 8.55001 7.18161 8.75626 7.35036 8.83126ZM10.4441 8.49376C10.5941 8.64376 10.7816 8.75626 11.0066 8.83126C11.2129 8.90626 11.4379 8.94376 11.6816 8.94376C11.9254 8.94376 12.1504 8.90626 12.3754 8.83126C12.5816 8.75626 12.7691 8.64376 12.9379 8.49376C13.0879 8.34376 13.2191 8.15626 13.3129 7.91251C13.4066 7.68751 13.4441 7.42501 13.4441 7.12501C13.4441 6.82501 13.4066 6.56251 13.3129 6.33751C13.2191 6.11251 13.0879 5.92501 12.9379 5.75626C12.7879 5.60626 12.6004 5.47501 12.3754 5.40001C12.1691 5.32501 11.9441 5.28751 11.7004 5.28751C11.4754 5.28751 11.2504 5.32501 11.0254 5.40001C10.8191 5.47501 10.6316 5.58751 10.4629 5.75626C10.2941 5.90626 10.1816 6.11251 10.0879 6.33751C9.97536 6.56251 9.93786 6.82501 9.93786 7.12501C9.93786 7.42501 9.97536 7.68751 10.0691 7.91251C10.1629 8.13751 10.2754 8.32501 10.4441 8.49376ZM10.8004 6.65626C10.8379 6.52501 10.8941 6.39376 10.9879 6.30001C11.0629 6.20626 11.1566 6.13126 11.2879 6.07501C11.4004 6.01876 11.5316 6.00001 11.6816 6.00001C11.8316 6.00001 11.9629 6.01876 12.0754 6.07501C12.1879 6.13126 12.2816 6.20626 12.3754 6.30001C12.4504 6.39376 12.5254 6.52501 12.5629 6.65626C12.6004 6.78751 12.6191 6.95626 12.6191 7.12501C12.6191 7.29376 12.6004 7.46251 12.5629 7.59376C12.5254 7.72501 12.4691 7.85626 12.3754 7.95001C12.3004 8.04376 12.2066 8.11876 12.0754 8.17501C11.9629 8.23126 11.8316 8.25001 11.6816 8.25001C11.5316 8.25001 11.4004 8.23126 11.2879 8.17501C11.1754 8.11876 11.0816 8.04376 10.9879 7.95001C10.9129 7.85626 10.8566 7.72501 10.8004 7.59376C10.7629 7.46251 10.7441 7.29376 10.7441 7.12501C10.7441 6.95626 10.7629 6.78751 10.8004 6.65626ZM14.0816 8.92501H15.2441C15.7691 8.92501 16.1816 8.83126 16.4441 8.64376C16.7066 8.45626 16.8379 8.17501 16.8379 7.81876C16.8379 7.63126 16.8004 7.48126 16.7254 7.33126C16.6504 7.18126 16.5004 7.06876 16.2754 6.99376C16.5379 6.82501 16.6879 6.61876 16.6879 6.33751C16.6879 6.15001 16.6504 6.00001 16.5754 5.86876C16.5004 5.73751 16.3879 5.64376 16.2566 5.56876C16.1254 5.49376 15.9566 5.43751 15.7691 5.40001C15.5816 5.36251 15.3754 5.34376 15.1504 5.34376H14.0816V8.85001V8.92501ZM14.8504 5.98126C14.9066 5.98126 14.9816 5.96251 15.0566 5.96251C15.1316 5.96251 15.2066 5.96251 15.2816 5.96251C15.4879 5.96251 15.6566 6.00001 15.7504 6.05626C15.8629 6.11251 15.9191 6.20626 15.9191 6.35626C15.9191 6.48751 15.8629 6.60001 15.7691 6.65626C15.6566 6.71251 15.4879 6.75001 15.2441 6.75001H14.8504V5.98126ZM14.8504 7.35001H15.3379C15.5629 7.35001 15.7316 7.38751 15.8629 7.46251C15.9754 7.53751 16.0504 7.65001 16.0504 7.81876C16.0504 8.00626 15.9754 8.11876 15.8254 8.19376C15.6754 8.26876 15.4879 8.28751 15.2441 8.28751C15.1691 8.28751 15.0941 8.28751 15.0191 8.28751C14.9441 8.28751 14.8879 8.28751 14.8316 8.26876V7.35001H14.8504Z" fill="#373737"/>
<path d="M23.3998 9.22502C23.3998 9.18752 23.3998 9.13127 23.3811 9.11252C23.3436 8.98127 23.2686 8.86877 23.1561 8.79377L19.8936 6.52502V2.06252C19.8936 1.74377 19.6311 1.48127 19.3123 1.48127H4.70606C4.38731 1.48127 4.1248 1.74377 4.1248 2.06252V6.48752L0.824805 8.75627C0.656055 8.86877 0.581055 9.03752 0.581055 9.22502C0.581055 9.22502 0.581055 9.22502 0.581055 9.24377L0.599805 21.9375C0.599805 22.0875 0.656055 22.2375 0.768555 22.35C0.881055 22.4625 1.03105 22.5188 1.18105 22.5188L22.8373 22.4813C23.1561 22.4813 23.4186 22.2188 23.4186 21.9L23.3998 9.22502ZM4.10605 10.575L2.1748 9.24377L4.10605 7.91252V10.575ZM18.3186 11.1375L14.2123 13.9875L12.6186 12.75C12.5998 12.75 12.5998 12.7313 12.5811 12.7313C12.2248 12.4688 11.7373 12.4875 11.3998 12.75L9.78731 14.0063L5.68106 11.175V3.05627H18.2998V11.1375H18.3186ZM19.8936 10.5375V7.95002L21.7686 9.24377L19.8936 10.5375Z" fill="#373737"/>
</svg>
