<svg width="34" height="34" viewBox="0 0 34 34" fill="none" xmlns="http://www.w3.org/2000/svg">
<g clip-path="url(#clip0_105_1251)">
<path d="M16.9875 -0.00415039C11.7175 -0.00415039 7.42497 4.28835 7.42497 9.55835C7.42386 9.67228 7.44108 9.78564 7.47597 9.8941C7.56522 13.2495 9.01872 16.1841 10.7272 18.9041C12.4952 21.7155 14.5416 24.3505 15.8548 27.0407C15.9412 27.218 16.0752 27.3677 16.2418 27.4732C16.4083 27.5786 16.601 27.6357 16.7982 27.6379C16.9953 27.6401 17.1892 27.5874 17.3581 27.4857C17.527 27.384 17.6643 27.2373 17.7546 27.062C19.1358 24.3738 21.2863 21.7346 23.1436 18.9254C24.9987 16.1161 26.584 13.0816 26.584 9.57535C26.5859 9.44034 26.5621 9.3062 26.5138 9.1801C26.3077 4.09072 22.1278 -0.00415039 16.9875 -0.00415039ZM16.9875 2.12085C21.11 2.12085 24.425 5.43797 24.425 9.55835C24.4239 9.63468 24.431 9.71092 24.4462 9.78572C24.3825 12.5652 23.099 15.1407 21.3713 17.7545C19.9093 19.9666 18.2561 22.251 16.8302 24.6246C15.4766 22.2616 13.9168 19.9815 12.5292 17.7757C10.8441 15.0918 9.58397 12.4526 9.58397 9.57323C9.58371 9.51122 9.57802 9.44936 9.56697 9.38835C9.60484 7.44624 10.4036 5.59662 11.7914 4.23746C13.1791 2.8783 15.045 2.11825 16.9875 2.12085ZM16.9875 6.3751C15.2407 6.3751 13.8 7.81585 13.8 9.5626C13.8 11.3093 15.2407 12.7501 16.9875 12.7501C18.7363 12.7501 20.175 11.3093 20.175 9.5626C20.175 7.81585 18.7363 6.3751 16.9875 6.3751ZM16.9875 8.5001C17.5867 8.5001 18.05 8.96335 18.05 9.5626C18.05 10.1618 17.5867 10.6251 16.9875 10.6251C16.8474 10.6271 16.7083 10.601 16.5785 10.5483C16.4487 10.4956 16.3308 10.4174 16.2317 10.3184C16.1326 10.2193 16.0545 10.1014 16.0018 9.97156C15.9491 9.84175 15.923 9.70268 15.925 9.5626C15.925 8.96335 16.3882 8.5001 16.9875 8.5001ZM25.6787 19.6075C25.4311 19.6081 25.1915 19.6951 25.0013 19.8536C24.8111 20.012 24.6822 20.2319 24.6368 20.4753C24.5914 20.7187 24.6325 20.9703 24.7529 21.1867C24.8733 21.403 25.0655 21.5705 25.2962 21.6602C27.4148 22.5187 28.777 23.6428 29.3635 24.6777C29.9521 25.7126 29.9372 26.6072 29.1701 27.708C27.6295 29.9095 22.7186 31.8602 17.1128 31.8836C11.505 31.9048 6.52609 30.0072 4.89834 27.7993C4.08447 26.6943 4.04409 25.7955 4.59022 24.7649C5.13847 23.7363 6.44959 22.6016 8.53422 21.7261C8.66888 21.6765 8.79209 21.6001 8.89641 21.5015C9.00073 21.4029 9.08401 21.2842 9.1412 21.1526C9.1984 21.021 9.22834 20.8791 9.22921 20.7356C9.23008 20.5921 9.20186 20.4499 9.14626 20.3176C9.09067 20.1853 9.00884 20.0656 8.90572 19.9658C8.8026 19.8659 8.68033 19.788 8.54628 19.7368C8.41223 19.6855 8.26918 19.6619 8.12576 19.6675C7.98235 19.673 7.84154 19.7075 7.71184 19.769C5.33184 20.7677 3.59572 22.1107 2.71384 23.7703C1.83197 25.4278 1.98497 27.4296 3.18772 29.0616C5.59322 32.3214 11.0736 34.0341 17.1256 34.0086C23.1755 33.9831 28.6048 32.23 30.9126 28.9298C32.0665 27.2787 32.1451 25.2685 31.2101 23.628C30.2793 21.9875 28.505 20.6657 26.0931 19.6903C25.9621 19.6345 25.8211 19.6056 25.6787 19.6053V19.6075Z" fill="black"/>
</g>
<defs>
<clipPath id="clip0_105_1251">
<rect width="34" height="34" fill="white"/>
</clipPath>
</defs>
</svg>
