<svg width="14" height="11" viewBox="0 0 14 11" fill="none" xmlns="http://www.w3.org/2000/svg">
<path d="M5.35758 6.96429L5.35714 2.67857L9.10714 4.82882L5.35758 6.96429ZM13.7893 2.19563C13.7893 2.19563 13.653 1.19844 13.2356 0.759311C12.7059 0.182705 12.1122 0.179991 11.8402 0.146526C9.89103 -7.45058e-08 6.96733 0 6.96733 0H6.96124C6.96124 0 4.03754 -7.45058e-08 2.08842 0.146526C1.81594 0.179991 1.22267 0.182705 0.692511 0.759311C0.275089 1.19844 0.139286 2.19563 0.139286 2.19563C0.139286 2.19563 0 3.36693 0 4.53778V5.63582C0 6.80712 0.139286 7.97797 0.139286 7.97797C0.139286 7.97797 0.275089 8.97516 0.692511 9.41429C1.22267 9.99089 1.91866 9.9728 2.22857 10.0329C3.34286 10.1442 6.96429 10.1786 6.96429 10.1786C6.96429 10.1786 9.89103 10.174 11.8402 10.0275C12.1122 9.9936 12.7059 9.99089 13.2356 9.41429C13.653 8.97516 13.7893 7.97797 13.7893 7.97797C13.7893 7.97797 13.9286 6.80712 13.9286 5.63582V4.53778C13.9286 3.36693 13.7893 2.19563 13.7893 2.19563Z" fill="#9CA393"/>
</svg>
