<svg width="13" height="13" viewBox="0 0 13 13" fill="none" xmlns="http://www.w3.org/2000/svg">
<path d="M6.1607 0C7.83386 0 8.04366 0.00709203 8.70074 0.0370739C9.35651 0.0670068 9.80433 0.171136 10.1962 0.323442C10.6013 0.480883 10.9449 0.691538 11.2874 1.03403C11.6299 1.37652 11.8405 1.72009 11.998 2.12521C12.1503 2.5171 12.2544 2.96492 12.2844 3.62068C12.3143 4.27777 12.3214 4.48757 12.3214 6.16073C12.3214 7.83389 12.3143 8.04369 12.2844 8.70077C12.2544 9.35653 12.1503 9.80435 11.998 10.1962C11.8405 10.6014 11.6299 10.9449 11.2874 11.2874C10.9449 11.6299 10.6013 11.8406 10.1962 11.998C9.80433 12.1503 9.35651 12.2544 8.70074 12.2844C8.04366 12.3144 7.83386 12.3214 6.1607 12.3214C4.48754 12.3214 4.27777 12.3144 3.62066 12.2844C2.9649 12.2544 2.51708 12.1503 2.12519 11.998C1.72007 11.8406 1.3765 11.6299 1.03401 11.2874C0.691514 10.9449 0.480859 10.6013 0.323417 10.1962C0.171112 9.80435 0.0669822 9.35653 0.0370493 8.70077C0.00706749 8.04369 0 7.83389 0 6.16073C0 4.48757 0.00706749 4.27777 0.0370493 3.62068C0.0669822 2.96492 0.171112 2.5171 0.323417 2.12521C0.480859 1.72009 0.691514 1.37652 1.03401 1.03403C1.3765 0.691538 1.72007 0.480883 2.12519 0.323442C2.51708 0.171136 2.9649 0.0670068 3.62066 0.0370739C4.27777 0.00709203 4.48754 0 6.1607 0ZM6.1607 1.11006C4.51571 1.11006 4.32088 1.11632 3.67123 1.14596C3.07059 1.17338 2.74439 1.27374 2.5273 1.35808C2.23974 1.46984 2.03448 1.60337 1.81891 1.81894C1.60334 2.03451 1.46982 2.23976 1.35808 2.5273C1.27371 2.74441 1.17335 3.07062 1.14594 3.67128C1.1163 4.3209 1.11004 4.51574 1.11004 6.16073C1.11004 7.80572 1.1163 8.00055 1.14594 8.6502C1.17335 9.25084 1.27371 9.57704 1.35808 9.79415C1.46982 10.0817 1.60334 10.2869 1.81891 10.5025C2.03448 10.7181 2.23974 10.8516 2.5273 10.9633C2.74439 11.0477 3.07059 11.1481 3.67126 11.1755C4.32078 11.2051 4.51561 11.2114 6.1607 11.2114C7.80579 11.2114 8.00062 11.2051 8.65015 11.1755C9.25081 11.1481 9.57702 11.0477 9.79413 10.9633C10.0817 10.8516 10.2869 10.7181 10.5025 10.5025C10.7181 10.2869 10.8516 10.0817 10.9633 9.79415C11.0477 9.57704 11.1481 9.25083 11.1755 8.65017C11.2051 8.00055 11.2114 7.80572 11.2114 6.16073C11.2114 4.51574 11.2051 4.3209 11.1755 3.67126C11.1481 3.07062 11.0477 2.74441 10.9633 2.5273C10.8516 2.23976 10.7181 2.03451 10.5025 1.81894C10.2869 1.60337 10.0817 1.46984 9.79413 1.35808C9.57702 1.27374 9.25081 1.17338 8.65015 1.14596C8.00052 1.11632 7.80569 1.11006 6.1607 1.11006ZM6.16131 2.8443C7.99323 2.8443 9.47832 4.32939 9.47832 6.16131C9.47832 7.99323 7.99323 9.47832 6.16131 9.47832C4.32939 9.47832 2.8443 7.99323 2.8443 6.16131C2.8443 4.32939 4.32939 2.8443 6.16131 2.8443ZM6.16131 8.31446C7.35045 8.31446 8.31446 7.35045 8.31446 6.16131C8.31446 4.97217 7.35045 4.00816 6.16131 4.00816C4.97217 4.00816 4.00816 4.97217 4.00816 6.16131C4.00816 7.35045 4.97217 8.31446 6.16131 8.31446ZM10.0115 2.63548C10.0115 3.04378 9.68051 3.37478 9.27221 3.37478C8.86391 3.37478 8.53291 3.04378 8.53291 2.63548C8.53291 2.22718 8.86391 1.8962 9.27221 1.8962C9.68051 1.8962 10.0115 2.22718 10.0115 2.63548Z" fill="#9CA393"/>
</svg>
