<svg width="19" height="19" viewBox="0 0 19 19" fill="none" xmlns="http://www.w3.org/2000/svg">
<path d="M3.16875 17.6701L4.59 18.3789H9.75C9.84946 18.3789 9.94484 18.3393 10.0152 18.269C10.0855 18.1987 10.125 18.1033 10.125 18.0039C10.125 17.9044 10.0855 17.809 10.0152 17.7387C9.94484 17.6684 9.84946 17.6289 9.75 17.6289H7.875C7.77554 17.6289 7.68016 17.5893 7.60983 17.519C7.53951 17.4487 7.5 17.3533 7.5 17.2539C7.5 17.1544 7.53951 17.059 7.60983 16.9887C7.68016 16.9184 7.77554 16.8789 7.875 16.8789H11.25C11.3495 16.8789 11.4448 16.8393 11.5152 16.769C11.5855 16.6987 11.625 16.6033 11.625 16.5039C11.625 16.4044 11.5855 16.309 11.5152 16.2387C11.4448 16.1684 11.3495 16.1289 11.25 16.1289H7.875C7.77554 16.1289 7.68016 16.0893 7.60983 16.019C7.53951 15.9487 7.5 15.8533 7.5 15.7539C7.5 15.6544 7.53951 15.559 7.60983 15.4887C7.68016 15.4184 7.77554 15.3789 7.875 15.3789H12.75C12.8495 15.3789 12.9448 15.3393 13.0152 15.269C13.0855 15.1987 13.125 15.1033 13.125 15.0039C13.125 14.9044 13.0855 14.809 13.0152 14.7387C12.9448 14.6684 12.8495 14.6289 12.75 14.6289H7.875C7.77554 14.6289 7.68016 14.5893 7.60983 14.519C7.53951 14.4487 7.5 14.3533 7.5 14.2539C7.5 14.1544 7.53951 14.059 7.60983 13.9887C7.68016 13.9184 7.77554 13.8789 7.875 13.8789H11.25C11.3495 13.8789 11.4448 13.8393 11.5152 13.769C11.5855 13.6987 11.625 13.6033 11.625 13.5039C11.625 13.4044 11.5855 13.309 11.5152 13.2387C11.4448 13.1684 11.3495 13.1289 11.25 13.1289H6.75C6.66725 13.1292 6.5867 13.1022 6.5209 13.052C6.45511 13.0018 6.40777 12.9313 6.38625 12.8514C6.36596 12.7712 6.37217 12.6866 6.40393 12.6102C6.4357 12.5338 6.49133 12.4698 6.5625 12.4276L7.86 11.6776C7.90303 11.6539 7.94083 11.6218 7.97112 11.5831C8.00141 11.5445 8.02357 11.5001 8.03625 11.4526C8.06193 11.3561 8.04832 11.2534 7.99842 11.167C7.94851 11.0805 7.86638 11.0174 7.77 10.9914C7.67374 10.9663 7.5715 10.9797 7.485 11.0289L3.28875 13.4551C3.23104 13.4861 3.16675 13.5028 3.10125 13.5039H0V17.6289H3C3.0587 17.6292 3.1165 17.6433 3.16875 17.6701ZM18.375 2.25385V0.461355C18.2925 0.408855 18.2175 0.352605 18.15 0.303855C18.0278 0.195988 17.8851 0.113834 17.7305 0.0622922C17.5759 0.0107502 17.4125 -0.00912408 17.25 0.00385468C16.779 0.0188279 16.317 0.136576 15.8962 0.348855C15.384 0.603377 14.8219 0.741668 14.25 0.753855C14.1246 0.754406 13.9994 0.746891 13.875 0.731355V2.25385C13.8759 2.85032 14.1132 3.4221 14.535 3.84386C14.9568 4.26562 15.5285 4.50296 16.125 4.50385C16.7217 4.50385 17.294 4.2668 17.716 3.84485C18.1379 3.42289 18.375 2.85059 18.375 2.25385ZM14.625 1.12885H15.375V1.87885H14.625V1.12885ZM16.125 3.75385C15.8266 3.75385 15.5405 3.63533 15.3295 3.42435C15.1185 3.21337 15 2.92722 15 2.62885H15.75C15.75 2.72831 15.7895 2.82369 15.8598 2.89402C15.9302 2.96435 16.0255 3.00385 16.125 3.00385C16.2245 3.00385 16.3198 2.96435 16.3902 2.89402C16.4605 2.82369 16.5 2.72831 16.5 2.62885H17.25C17.25 2.92722 17.1315 3.21337 16.9205 3.42435C16.7095 3.63533 16.4234 3.75385 16.125 3.75385ZM17.625 1.87885H16.875V1.12885H17.625V1.87885ZM16.125 5.25385C15.8719 5.25353 15.6198 5.22076 15.375 5.15635V6.00385C15.3754 6.08102 15.3518 6.15641 15.3075 6.21957C15.2631 6.28273 15.2002 6.33053 15.1275 6.35635L14.865 6.4501C15.255 6.64974 15.6869 6.75385 16.125 6.75385C16.5631 6.75385 16.995 6.64974 17.385 6.4501L17.1225 6.35635C17.0498 6.33053 16.9869 6.28273 16.9425 6.21957C16.8982 6.15641 16.8746 6.08102 16.875 6.00385V5.15635C16.6299 5.21943 16.378 5.25218 16.125 5.25385Z" fill="#373737"/>
</svg>
