<svg width="45" height="45" viewBox="0 0 45 45" fill="none" xmlns="http://www.w3.org/2000/svg">
<path d="M36.5533 29.4873C35.2701 28.1689 31.6226 25.6992 29.232 25.6992C28.6783 25.6992 28.1949 25.8223 27.7994 26.0771C26.6304 26.8242 25.6988 27.4043 25.2505 27.4043C25.0044 27.4043 24.7408 27.1846 24.1607 26.6836L24.064 26.5957C22.4556 25.1982 22.1128 24.8379 21.4888 24.1875L21.3306 24.0205C21.2164 23.9062 21.1197 23.8008 21.023 23.7041C20.4781 23.1416 20.0826 22.7373 18.6851 21.1553L18.6236 21.085C17.9556 20.3291 17.5162 19.8369 17.4898 19.4766C17.4634 19.125 17.771 18.5537 18.5533 17.4902C19.5025 16.207 19.5376 14.625 18.6675 12.7881C17.9732 11.3379 16.8394 9.94922 15.8374 8.72754L15.7496 8.62207C14.8882 7.56738 13.8863 7.04004 12.7701 7.04004C11.5308 7.04004 10.5025 7.70801 9.95757 8.05957C9.91362 8.08594 9.86968 8.12109 9.82573 8.14746C8.60405 8.9209 7.71635 9.98438 7.38237 11.0654C6.88139 12.6914 6.54741 14.8008 8.94682 19.1865C11.021 22.9834 12.9019 25.5322 15.8902 28.5996C18.7027 31.4824 19.9507 32.4141 22.7457 34.4355C25.857 36.6855 28.8453 37.9775 30.9371 37.9775C32.8794 37.9775 34.4087 37.9775 36.5884 35.3496C38.8736 32.5898 37.9244 30.9023 36.5533 29.4873ZM35.5425 34.4004C33.7847 36.5273 32.774 36.5273 30.9459 36.5273C29.1617 36.5273 26.3931 35.2969 23.5455 33.249C20.8208 31.2803 19.608 30.375 16.8746 27.5713C13.983 24.6094 12.1636 22.1396 10.1597 18.4746C8.04155 14.5986 8.27885 12.9023 8.70952 11.5049C8.93803 10.7578 9.62358 9.95801 10.5552 9.37793C10.5992 9.35156 10.6431 9.31641 10.6958 9.29004C11.1617 8.99121 11.9351 8.49023 12.7789 8.49023C13.482 8.49023 14.106 8.8418 14.7037 9.57129L14.7916 9.67676C17.0328 12.4189 18.7818 14.8447 17.4634 16.6377C16.5318 17.8945 16.0396 18.7471 16.1187 19.626C16.189 20.4785 16.7603 21.1201 17.6216 22.0869L17.6832 22.1572C19.0982 23.7568 19.5025 24.1787 20.065 24.75C20.1617 24.8467 20.2583 24.9521 20.3726 25.0664L20.5308 25.2334C21.1812 25.9102 21.5416 26.2793 23.1939 27.7295L23.2906 27.8174C23.9937 28.4326 24.5123 28.8809 25.2681 28.8809C26.0503 28.8809 26.9117 28.3887 28.5464 27.3428C28.7134 27.2373 28.9507 27.1758 29.2496 27.1758C31.1568 27.1758 34.4439 29.3555 35.5953 30.542C36.65 31.6143 37.1773 32.4228 35.5425 34.4004Z" fill="black"/>
</svg>
