<svg width="14" height="13" viewBox="0 0 14 13" fill="none" xmlns="http://www.w3.org/2000/svg">
<path d="M13.3929 13.3929H10.6183V9.04278C10.6183 8.00499 10.6001 6.67039 9.17598 6.67039C7.73155 6.67039 7.51168 7.80139 7.51168 8.96832V13.3929H4.73976V4.44693H7.39993V5.67009H7.43788C7.80795 4.9666 8.71391 4.2251 10.0643 4.2251C12.8736 4.2251 13.3929 6.0773 13.3929 8.48666V13.3929ZM1.61024 3.2248C0.718839 3.2248 0 2.50257 0 1.61214C0 0.722235 0.718839 0 1.61024 0C2.498 0 3.21892 0.722235 3.21892 1.61214C3.21892 2.50257 2.498 3.2248 1.61024 3.2248ZM0.220901 13.3929V4.44693H2.99854V13.3929H0.220901Z" fill="#9CA393"/>
</svg>
