<svg width="32" height="30" viewBox="0 0 32 30" fill="none" xmlns="http://www.w3.org/2000/svg">
<path fill-rule="evenodd" clip-rule="evenodd" d="M1.9835 0C1.715 0 1.5 0.231 1.5 0.5175V27.5H0.5175C0.231 27.5 0 27.7155 0 27.9835V28.0165C0 28.2845 0.231 28.5 0.5175 28.5H1.5V29.4825C1.5 29.769 1.7155 30 1.9835 30H2.0165C2.285 30 2.5 29.769 2.5 29.4825V28.5H29.4825C29.769 28.5 30 28.2845 30 28.0165V27.9835C30 27.7155 29.769 27.5 29.4825 27.5H2.5V0.5175C2.5 0.231 2.2845 0 2.0165 0H1.9835ZM29.4395 6.985C29.3894 6.9875 29.3396 6.99251 29.29 7H25.5L27.332 8.832L23.706 13.447L21.372 11.7805C21.0559 11.5546 20.6645 11.4601 20.2802 11.517C19.8959 11.5739 19.5486 11.7777 19.3115 12.0855L15.166 17.475L11.832 15.2525C11.5197 15.0445 11.1407 14.961 10.7699 15.0187C10.3991 15.0764 10.0634 15.2709 9.829 15.564L3 24.0995V27H4.5205L11.3125 18.5115L14.6675 20.748C14.9838 20.959 15.3685 21.042 15.7437 20.9801C16.1189 20.9183 16.4566 20.7163 16.6885 20.415L20.8065 15.0625L23.128 16.7205C23.442 16.9449 23.8305 17.0397 24.2126 16.985C24.5947 16.9303 24.941 16.7305 25.1795 16.427L29.4685 10.969L31 12.5V8.67C31.0159 8.5445 31.0159 8.4175 31 8.292V7H29.7285C29.6329 6.9857 29.5361 6.98067 29.4395 6.985Z" fill="white"/>
</svg>
