<svg width="14" height="12" viewBox="0 0 14 12" fill="none" xmlns="http://www.w3.org/2000/svg">
<path fill-rule="evenodd" clip-rule="evenodd" d="M12.2878 1.86341C12.878 1.49567 13.3309 0.912552 13.5443 0.217923C12.9917 0.558428 12.381 0.806145 11.7285 0.938941C11.2086 0.360935 10.4654 0 9.64298 0C8.06593 0 6.78647 1.33222 6.78647 2.97516C6.78647 3.2084 6.811 3.43484 6.86005 3.65276C4.48507 3.52848 2.37988 2.34523 0.969612 0.543105C0.72353 0.984058 0.582912 1.49567 0.582912 2.04047C0.582912 3.0722 1.08734 3.98305 1.8542 4.51679C1.38656 4.50232 0.945086 4.36697 0.559203 4.14564V4.18225C0.559203 5.62428 1.54435 6.82712 2.85243 7.09952C2.61288 7.16932 2.36026 7.20423 2.09946 7.20423C1.91552 7.20423 1.73566 7.18635 1.56152 7.15145C1.92533 8.333 2.97996 9.19362 4.23081 9.21661C3.25303 10.0151 2.02016 10.4909 0.681835 10.4909C0.451287 10.4909 0.223191 10.4773 0 10.4501C1.26475 11.2928 2.7674 11.7857 4.38042 11.7857C9.63726 11.7857 12.5109 7.25275 12.5109 3.32077C12.5109 3.19138 12.5085 3.06199 12.5036 2.93515C13.062 2.51548 13.5468 1.99195 13.9286 1.39522C13.4168 1.63187 12.8658 1.79191 12.2878 1.86341Z" fill="#9CA393"/>
</svg>
